<svg width="56" height="57" viewBox="0 0 56 57" fill="none" xmlns="http://www.w3.org/2000/svg">
<rect y="0.39209" width="56" height="56" rx="28" fill="#3D544D"/>
<path d="M26.4962 20.3921C19.6247 21.7254 19 28.3921 19 28.3921M19 28.3921V32.644C19 33.3392 19 33.6868 19.0574 33.9759C19.2937 35.1672 20.2249 36.0984 21.4162 36.3347C21.7053 36.3921 22.0529 36.3921 22.7481 36.3921V36.3921C23.4434 36.3921 23.791 36.3921 24.0801 36.3347C25.2713 36.0984 26.2025 35.1672 26.4389 33.9759C26.4962 33.6868 26.4962 33.3392 26.4962 32.644V32.3921C26.4962 31.4621 26.4962 30.9971 26.394 30.6156C26.1166 29.5804 25.308 28.7717 24.2727 28.4943C23.8912 28.3921 23.4262 28.3921 22.4962 28.3921H19Z" stroke="white" stroke-width="1.5"/>
<path d="M37 20.3921C30.1285 21.7254 29.5038 28.3921 29.5038 28.3921M29.5038 28.3921V32.644C29.5038 33.3392 29.5038 33.6868 29.5611 33.9759C29.7975 35.1672 30.7287 36.0984 31.92 36.3347C32.2091 36.3921 32.5567 36.3921 33.2519 36.3921V36.3921C33.9471 36.3921 34.2948 36.3921 34.5838 36.3347C35.7751 36.0984 36.7063 35.1672 36.9427 33.9759C37 33.6868 37 33.3392 37 32.644V32.3921C37 31.4621 37 30.9971 36.8978 30.6156C36.6204 29.5804 35.8118 28.7717 34.7765 28.4943C34.395 28.3921 33.93 28.3921 33 28.3921H29.5038Z" stroke="white" stroke-width="1.5"/>
</svg>
