<svg width="80" height="80" viewBox="0 0 80 80" fill="none" xmlns="http://www.w3.org/2000/svg">
<rect x="1.5" y="1.5" width="77" height="77" rx="18.5" stroke="#8436FF" stroke-width="3"/>
<path d="M39.9997 21C47.3266 21 53.266 26.9399 53.266 34.2663C53.266 36.2698 52.8222 39.112 52.0272 42.1852C51.1938 45.4067 49.975 48.8812 48.4777 51.9079C46.1791 56.5556 43.2239 60.1481 39.9997 60.1481C36.7755 60.1481 33.8208 56.5556 31.5222 51.9079C30.0244 48.8812 28.806 45.4067 27.9726 42.1857C27.1777 39.1125 26.7334 36.2698 26.7334 34.2663C26.7334 26.9399 32.6733 21 39.9997 21Z" stroke="#141433" stroke-width="2" stroke-miterlimit="10"/>
<path d="M39.9999 27.2512C36.1254 27.2512 32.9849 30.3922 32.9849 34.2663C32.9849 38.1403 36.1259 41.2813 39.9999 41.2813C43.874 41.2813 47.0149 38.1403 47.0149 34.2663C47.0149 30.3922 43.874 27.2512 39.9999 27.2512Z" stroke="#141433" stroke-width="2" stroke-miterlimit="10"/>
<path d="M59.9614 54.197L59.631 57.9748C59.5158 59.2927 57.9276 60.0257 56.97 59.2032L48.4775 51.9079C49.9748 48.8813 51.1937 45.4067 52.0271 42.1853L56.8724 46.3477C59.0918 48.254 60.2285 51.1428 59.9614 54.197Z" stroke="#141433" stroke-width="2" stroke-miterlimit="10"/>
<path d="M31.5222 51.9078L23.0298 59.2031C22.0721 60.0256 20.484 59.2926 20.3688 57.9747L20.0384 54.1969C19.7713 51.1427 20.9079 48.2539 23.1274 46.3476L27.9727 42.1857C28.8061 45.4067 30.0245 48.8812 31.5222 51.9078Z" stroke="#141433" stroke-width="2" stroke-miterlimit="10"/>
<line x1="29.2148" y1="46.6213" x2="50.7167" y2="46.6213" stroke="#141433" stroke-width="2"/>
</svg>
