<svg width="80" height="80" viewBox="0 0 80 80" fill="none" xmlns="http://www.w3.org/2000/svg">
<rect x="1.5" y="1.5" width="77" height="77" rx="18.5" stroke="#8436FF" stroke-width="3"/>
<path d="M54.5566 51.7152C57.9317 48.1346 60 43.3086 60 38C60 26.9543 51.0457 18 40 18C28.9543 18 20 26.9543 20 38C20 43.3086 22.0683 48.1341 25.4434 51.7148" stroke="#141433" stroke-width="2" stroke-miterlimit="10"/>
<path d="M50.635 46.4044C52.4632 44.0941 53.5548 41.1748 53.5548 38.0001C53.5548 30.5137 47.4857 24.4451 39.9998 24.4451C32.514 24.4451 26.4448 30.5137 26.4448 38.0001C26.4448 41.1748 27.5365 44.0941 29.3646 46.4044" stroke="#141433" stroke-width="2" stroke-miterlimit="10"/>
<path d="M40.0002 45.1677C43.9588 45.1677 47.1679 41.9586 47.1679 38C47.1679 34.0414 43.9588 30.8323 40.0002 30.8323C36.0416 30.8323 32.8325 34.0414 32.8325 38C32.8325 41.9586 36.0416 45.1677 40.0002 45.1677Z" stroke="#141433" stroke-width="2" stroke-miterlimit="10"/>
<path d="M53.1807 58.3491H26.8184C26.8184 51.0692 32.7199 45.1677 39.9998 45.1677C47.2797 45.1677 53.1807 51.0692 53.1807 58.3491Z" stroke="#141433" stroke-width="2" stroke-miterlimit="10"/>
</svg>
