<svg width="31" height="31" viewBox="0 0 31 31" fill="none" xmlns="http://www.w3.org/2000/svg">
<g id="Group 53">
<g id="&#240;&#159;&#166;&#134; icon &#34;instagram&#34;">
<path id="Vector" d="M15.2734 21.6171C18.7768 21.6171 21.6171 18.7768 21.6171 15.2734C21.6171 11.7698 18.7768 8.92969 15.2734 8.92969C11.7698 8.92969 8.92969 11.7698 8.92969 15.2734C8.92969 18.7768 11.7698 21.6171 15.2734 21.6171Z" stroke="white" stroke-width="2" stroke-linecap="round" stroke-linejoin="round"/>
<path id="Vector_2" d="M1 21.617V8.9296C1 4.55021 4.55021 1 8.9296 1H21.617C25.9963 1 29.5466 4.55021 29.5466 8.9296V21.617C29.5466 25.9963 25.9963 29.5466 21.617 29.5466H8.9296C4.55021 29.5466 1 25.9963 1 21.617Z" stroke="white" stroke-width="2"/>
<path id="Vector_3" d="M23.9961 6.56645L24.012 6.54883" stroke="white" stroke-width="2" stroke-linecap="round" stroke-linejoin="round"/>
</g>
</g>
</svg>
