<svg width="305" height="36" viewBox="0 0 305 36" fill="none" xmlns="http://www.w3.org/2000/svg">
<g clip-path="url(#clip0_2237_87)">
<path d="M20.9452 10.4964C19.9162 9.33138 18.6562 8.43475 17.1636 7.81066C15.6711 7.18656 13.9955 6.87451 12.1384 6.87451C10.2814 6.87451 8.60584 7.19474 7.11328 7.83518C5.62072 8.47563 4.3524 9.38725 3.30692 10.57C2.26282 11.7528 1.44982 13.1822 0.869307 14.8583C0.288793 16.533 -0.00146484 18.4067 -0.00146484 20.4765C-0.00146484 22.5464 0.272285 24.3533 0.819785 25.9953C1.36728 27.6387 2.14589 29.0436 3.15835 30.2086C4.16944 31.3751 5.41301 32.2703 6.88905 32.8944C8.3651 33.5185 10.0489 33.8306 11.939 33.8306C13.8291 33.8306 15.5294 33.5103 17.0384 32.8699C18.5475 32.2294 19.8255 31.3097 20.8696 30.1092C21.9137 28.91 22.7184 27.4724 23.2824 25.7963C23.8464 24.1216 24.1284 22.248 24.1284 20.1781C24.1284 18.1082 23.8547 16.3504 23.3072 14.7084C22.7597 13.0664 21.9714 11.6615 20.9438 10.4951L20.9452 10.4964ZM20.5477 24.6653C20.2161 26.013 19.6851 27.1781 18.9561 28.1646C18.2256 29.1498 17.2971 29.9306 16.169 30.5057C15.041 31.0807 13.664 31.3682 12.0394 31.3682C10.4148 31.3682 9.07905 31.0807 7.93453 30.5057C6.79001 29.9306 5.86146 29.1512 5.14888 28.1646C4.43493 27.1781 3.9122 26.013 3.58205 24.6653C3.25052 23.319 3.08544 21.8733 3.08544 20.3294C3.08544 18.7855 3.25052 17.3479 3.58205 16.0166C3.91357 14.6853 4.43493 13.5284 5.14888 12.5418C5.86146 11.5552 6.79001 10.7758 7.93453 10.2008C9.07905 9.62571 10.4478 9.33819 12.0394 9.33819C13.631 9.33819 15.041 9.62571 16.169 10.2008C17.2957 10.7758 18.2256 11.5552 18.9561 12.5418C19.6851 13.527 20.2161 14.6853 20.5477 16.0166C20.8792 17.3479 21.0443 18.7691 21.0443 20.279C21.0443 21.7888 20.8778 23.3177 20.5477 24.6653Z" fill="white"/>
<path d="M39.2492 30.9242C38.6522 31.0564 37.9217 31.1218 37.0606 31.1218C35.7331 31.1218 34.8046 30.6871 34.2736 29.8163C33.7426 28.9456 33.4771 27.8868 33.4771 26.6373V10.0292H40.7404V7.66364H33.4771V0.665039H30.591V7.66228H26.6113V10.0278H30.591V24.8127C30.591 25.9627 30.6405 27.0638 30.741 28.1144C30.84 29.1663 31.0972 30.0943 31.5127 30.8983C31.9268 31.7036 32.5485 32.3522 33.378 32.8455C34.2062 33.3388 35.3507 33.5854 36.8102 33.5854C37.9713 33.5854 38.9081 33.5023 39.6206 33.3388C40.3332 33.1739 40.9399 32.994 41.4365 32.7965L40.8394 30.4799C40.3745 30.6448 39.8449 30.792 39.2478 30.9228L39.2492 30.9242Z" fill="white"/>
<path d="M44.9897 7.66357V10.0291H47.5856V33.043H50.4716V9.65305C50.4716 8.55475 49.572 7.66357 48.4632 7.66357H44.9897Z" fill="white"/>
<path d="M83.0522 6.90722C82.4043 6.94946 81.3657 7.15658 80.7549 7.37733C78.4383 8.21673 76.4918 9.70884 74.914 11.8523C74.35 10.2757 73.4792 9.05204 72.3017 8.17994C71.1241 7.31056 69.5573 6.87451 67.5998 6.87451C66.1072 6.87451 64.6394 7.28603 63.1964 8.10635C61.7534 8.92803 60.4011 10.1762 59.1424 11.8509V7.66213H56.2563V33.043H59.1424V18.0115C59.1424 17.1571 59.2332 16.4022 59.4162 15.744C59.5977 15.0872 59.822 14.5122 60.0875 14.0189C60.353 13.527 60.6597 13.0991 61.0078 12.738C61.3558 12.3769 61.6791 12.0649 61.9776 11.8019C62.8401 11.047 63.7109 10.4637 64.5899 10.0522C65.4689 9.64206 66.4057 9.4363 67.4003 9.4363C69.1584 9.4363 70.468 9.95411 71.3305 10.9884C72.193 12.0226 72.6236 13.7723 72.6236 16.2373V33.043H75.5096V16.7797C75.5096 15.5969 75.7655 14.5613 76.2814 13.6742C76.7945 12.7871 77.4506 12.0322 78.2458 11.4081C79.1413 10.6532 80.0781 10.1353 81.0562 9.856C82.0342 9.57802 82.905 9.4363 83.6685 9.4363C84.564 9.4363 85.3426 9.54395 86.007 9.75653C86.6701 9.97046 87.2259 10.3397 87.6743 10.8657C88.1228 11.3917 88.4529 12.0812 88.6689 12.9356C88.8849 13.79 88.9922 14.8747 88.9922 16.1883V33.043H91.8782V15.154C91.8782 12.2638 91.1822 10.1599 89.7886 8.84627C88.2177 7.36507 85.9713 6.71781 83.0508 6.90722H83.0522Z" fill="white"/>
<path d="M125.26 7.66347H106.854V10.0781H123.606L106.93 30.1187C106.779 30.2999 106.652 30.5057 106.585 30.7305C106.227 31.9405 107.134 33.0429 108.3 33.0429H127.054V30.6283H109.94L126.644 10.57C126.91 10.2512 127.054 9.8519 127.054 9.43901C127.054 8.4579 126.251 7.66211 125.26 7.66211V7.66347Z" fill="white"/>
<path d="M149.417 9.36408C148.67 8.55875 147.683 7.94283 146.456 7.51496C145.229 7.08845 143.72 6.87451 141.929 6.87451C136.158 6.87451 132.807 8.94439 131.88 13.0841L134.517 13.4779C134.682 12.8538 134.931 12.2883 135.264 11.7773C135.596 11.2677 136.043 10.8249 136.608 10.446C137.172 10.0686 137.877 9.78106 138.723 9.58347C139.569 9.38589 140.605 9.28778 141.833 9.28778C144.353 9.28778 146.103 9.86282 147.081 11.0129C148.059 12.163 148.549 13.9862 148.549 16.4826V17.2716L143.573 17.4692C141.914 17.5359 140.314 17.6913 138.772 17.9379C137.23 18.1846 135.853 18.6206 134.643 19.2433C133.432 19.8674 132.461 20.7218 131.732 21.8065C131.001 22.8898 130.637 24.2865 130.637 25.9953C130.637 28.5257 131.448 30.4307 133.074 31.7116C134.699 32.9925 136.855 33.633 139.541 33.633C140.636 33.633 141.639 33.5172 142.551 33.2882C143.463 33.0579 144.301 32.7459 145.064 32.3521C145.826 31.9583 146.507 31.5072 147.104 30.9976C147.701 30.488 148.216 29.9715 148.646 29.4455V33.043H151.533V16.3368C151.533 14.8256 151.366 13.4875 151.035 12.321C150.703 11.156 150.164 10.1694 149.418 9.36408H149.417ZM148.596 23.2863C148.596 24.0753 148.546 24.7648 148.446 25.3562C148.347 25.9476 148.172 26.4818 147.923 26.9573C147.674 27.4343 147.359 27.8689 146.978 28.2628C146.595 28.6566 146.107 29.0681 145.51 29.4946C144.814 30.0533 143.925 30.4553 142.848 30.7019C141.77 30.9485 140.684 31.0712 139.589 31.0712C137.401 31.0712 135.865 30.6024 134.988 29.6663C134.109 28.7301 133.67 27.4901 133.67 25.9449C133.67 24.927 133.843 24.0481 134.193 23.3081C134.541 22.5682 135.113 21.9455 135.909 21.4358C136.706 20.9262 137.75 20.5324 139.045 20.2531C140.338 19.9737 141.946 19.802 143.87 19.7353L148.597 19.5377V23.2822L148.596 23.2863Z" fill="white"/>
<path d="M168.685 7.26978C167.193 7.26978 165.783 7.66358 164.456 8.45256C163.129 9.24154 161.951 10.3589 160.924 11.8033V9.65579C160.924 8.56021 160.03 7.6704 158.924 7.66631L158.039 7.66358V7.67448H155.142V10.0401H158.039V33.043H160.925V17.7663C160.925 16.4854 161.174 15.3762 161.672 14.4401C162.169 13.5039 162.799 12.7068 163.562 12.05C164.359 11.2951 165.205 10.7609 166.099 10.4489C166.994 10.1368 167.874 9.9801 168.736 9.9801C169.234 9.9801 169.78 10.0292 170.379 10.1286L170.727 7.4183C170.362 7.3529 170.021 7.31202 169.707 7.29567C169.391 7.27931 169.052 7.27114 168.688 7.27114L168.685 7.26978Z" fill="white"/>
<path d="M194.506 19.2448C194.506 17.5033 194.306 15.8777 193.909 14.3665C193.511 12.8553 192.871 11.5499 191.994 10.4489C191.115 9.34783 189.978 8.4771 188.586 7.83665C187.193 7.1962 185.502 6.87598 183.512 6.87598C181.82 6.87598 180.269 7.17167 178.859 7.76307C177.449 8.35446 176.222 9.23337 175.178 10.3998C174.134 11.5662 173.321 13.0038 172.74 14.7126C172.16 16.4214 171.87 18.3931 171.87 20.6265C171.87 24.7336 172.889 27.9617 174.929 30.3109C176.969 32.6602 179.829 33.8348 183.512 33.8348C186.695 33.8348 189.15 33.1453 190.875 31.7649C192.599 30.3845 193.661 28.5953 194.06 26.3933H191.274C191.075 27.1496 190.801 27.8309 190.453 28.4386C190.105 29.0464 189.632 29.5805 189.035 30.0398C188.438 30.5003 187.691 30.8533 186.797 31.0999C185.901 31.3465 184.806 31.4692 183.513 31.4692C182.086 31.4692 180.826 31.198 179.731 30.6557C178.638 30.1133 177.724 29.3748 176.995 28.4386C176.266 27.5025 175.719 26.4015 175.354 25.1369C174.988 23.8724 174.807 22.5179 174.807 21.0721H194.508V19.2489L194.506 19.2448ZM174.853 18.6044C175.152 15.4185 176.047 13.0529 177.54 11.5076C179.033 9.96375 181.023 9.19113 183.51 9.19113C184.935 9.19113 186.164 9.42142 187.191 9.88063C188.219 10.3412 189.048 10.9898 189.678 11.8265C190.309 12.6645 190.772 13.6579 191.072 14.808C191.371 15.9581 191.519 17.2226 191.519 18.603H174.852L174.853 18.6044Z" fill="white"/>
<path d="M49.4015 0.035352C48.0602 -0.216739 46.9074 0.926529 47.1619 2.25376C47.3036 2.99095 47.9117 3.59461 48.6572 3.73496C49.9985 3.98705 51.1513 2.84379 50.8968 1.51656C50.7551 0.779362 50.1471 0.175706 49.4015 0.035352Z" fill="white"/>
<path d="M96.2485 7.66357V10.0291H98.8443V33.043H101.73V9.65305C101.73 8.55475 100.831 7.66357 99.722 7.66357H96.2485Z" fill="white"/>
<path d="M100.66 0.035352C99.319 -0.216739 98.1662 0.926529 98.4207 2.25376C98.5624 2.99095 99.1704 3.59461 99.916 3.73496C101.257 3.98705 102.41 2.84379 102.156 1.51656C102.014 0.779362 101.406 0.175706 100.66 0.035352Z" fill="white"/>
<path d="M211.405 17.8971V7.79297H213.389V17.8984H211.405V17.8971Z" fill="#B078FF"/>
<path d="M215.778 17.8972V10.3808H217.315V13.6062H217.174C217.174 12.8404 217.278 12.2013 217.481 11.6889C217.685 11.1766 217.992 10.7923 218.397 10.5334C218.802 10.2745 219.308 10.145 219.913 10.145H219.997C220.901 10.145 221.586 10.4339 222.051 11.0103C222.517 11.5867 222.75 12.4479 222.75 13.5925V17.8972H220.808V13.4263C220.808 12.9644 220.674 12.591 220.409 12.3048C220.143 12.0187 219.777 11.8756 219.312 11.8756C218.847 11.8756 218.452 12.0214 218.159 12.3116C217.866 12.6019 217.719 12.993 217.719 13.4822V17.8972H215.777H215.778Z" fill="#B078FF"/>
<path d="M223.854 11.7937V10.382H229.221V11.7937H223.854ZM228.131 17.9951C227.432 17.9951 226.857 17.9052 226.405 17.7253C225.952 17.5455 225.615 17.2402 225.392 16.8123C225.168 16.3831 225.057 15.804 225.057 15.075L225.071 8.2644H226.886L226.873 15.199C226.873 15.5682 226.973 15.8517 227.173 16.0506C227.373 16.2496 227.659 16.3477 228.032 16.3477H229.219V17.9951H228.13H228.131Z" fill="#B078FF"/>
<path d="M234.21 18.1602C233.558 18.1602 232.987 18.0498 232.499 17.8277C232.009 17.6056 231.605 17.3085 231.283 16.9351C230.961 16.5618 230.719 16.1434 230.556 15.6829C230.394 15.2209 230.312 14.7508 230.312 14.2712V14.0082C230.312 13.5094 230.393 13.0284 230.556 12.5624C230.72 12.0964 230.962 11.6807 231.283 11.3169C231.605 10.9517 232.002 10.6615 232.478 10.4448C232.953 10.2282 233.503 10.1191 234.128 10.1191C234.947 10.1191 235.634 10.2963 236.188 10.6519C236.743 11.0076 237.159 11.4736 237.439 12.05C237.718 12.6264 237.858 13.2478 237.858 13.9114V14.6036H231.137V13.4277H236.642L236.041 14.0095C236.041 13.5299 235.971 13.1197 235.832 12.7777C235.692 12.437 235.48 12.174 235.196 11.9887C234.912 11.8047 234.555 11.7121 234.128 11.7121C233.7 11.7121 233.335 11.8088 233.038 12.0023C232.74 12.1958 232.514 12.4752 232.36 12.8404C232.206 13.2056 232.129 13.6416 232.129 14.1485C232.129 14.6186 232.203 15.037 232.353 15.4008C232.502 15.766 232.73 16.0508 233.038 16.2593C233.345 16.4664 233.737 16.5713 234.211 16.5713C234.686 16.5713 235.073 16.4773 235.371 16.2879C235.67 16.0985 235.861 15.8655 235.945 15.5888H237.733C237.622 16.1053 237.407 16.5577 237.091 16.946C236.774 17.3344 236.371 17.6328 235.881 17.8454C235.392 18.058 234.836 18.1643 234.211 18.1643L234.21 18.1602Z" fill="#B078FF"/>
<path d="M238.625 9.23193V7.79297H241.517V9.23193H238.625ZM239.575 17.8971V7.79297H241.517V17.8984H239.575V17.8971Z" fill="#B078FF"/>
<path d="M243.041 11.8211V10.3821H246.045V11.8211H243.041ZM244.815 9.48143C244.433 9.48143 244.151 9.38195 243.969 9.18437C243.787 8.98542 243.697 8.73469 243.697 8.42946C243.697 8.12422 243.787 7.87622 243.969 7.68136C244.151 7.4865 244.433 7.39111 244.815 7.39111C245.198 7.39111 245.477 7.48786 245.653 7.68136C245.829 7.87486 245.918 8.12422 245.918 8.42946C245.918 8.73469 245.83 8.98542 245.653 9.18437C245.475 9.38332 245.196 9.48143 244.815 9.48143ZM244.103 17.8972V10.3808H246.045V17.8972H244.103Z" fill="#B078FF"/>
<path d="M251.243 20.8594C250.88 20.8594 250.51 20.8458 250.132 20.8172C249.755 20.7899 249.403 20.7532 249.077 20.7068V19.1016C249.412 19.1384 249.77 19.1725 250.153 19.2052C250.535 19.2379 250.893 19.2542 251.228 19.2542C251.853 19.2542 252.358 19.1806 252.744 19.0335C253.131 18.8863 253.416 18.6533 253.597 18.3344C253.779 18.0156 253.87 17.6122 253.87 17.123V15.6418L254.289 14.7002C254.262 15.3925 254.117 15.9811 253.856 16.4649C253.594 16.9486 253.241 17.3179 252.794 17.5727C252.347 17.8262 251.829 17.9529 251.242 17.9529C250.721 17.9529 250.247 17.8561 249.824 17.6626C249.4 17.4692 249.037 17.2007 248.734 16.86C248.432 16.5194 248.196 16.1174 248.029 15.6555C247.861 15.1935 247.777 14.7002 247.777 14.1743V13.884C247.777 13.358 247.864 12.8661 248.035 12.4096C248.207 11.9531 248.452 11.5539 248.769 11.2118C249.085 10.8712 249.462 10.6082 249.901 10.4229C250.338 10.2389 250.822 10.1462 251.353 10.1462C251.978 10.1462 252.52 10.2798 252.981 10.5482C253.442 10.8167 253.803 11.2037 254.063 11.7106C254.323 12.2175 254.469 12.8416 254.497 13.5788L254.161 13.6346V10.382H255.698V17.0127C255.698 17.9256 255.54 18.6642 255.223 19.227C254.907 19.7898 254.42 20.2026 253.762 20.4656C253.105 20.7286 252.264 20.8608 251.239 20.8608L251.243 20.8594ZM251.802 16.3054C252.175 16.3054 252.515 16.2223 252.823 16.0561C253.129 15.8898 253.377 15.65 253.563 15.3366C253.75 15.0232 253.842 14.6444 253.842 14.2015V13.7178C253.842 13.294 253.747 12.9329 253.556 12.6385C253.365 12.3428 253.116 12.1194 252.809 11.9667C252.501 11.8141 252.166 11.7378 251.803 11.7378C251.393 11.7378 251.033 11.8332 250.721 12.0213C250.408 12.2107 250.164 12.4764 249.987 12.817C249.811 13.1577 249.722 13.5638 249.722 14.0353C249.722 14.5067 249.81 14.8978 249.987 15.2398C250.165 15.5819 250.408 15.8435 250.721 16.0288C251.033 16.2141 251.393 16.3054 251.803 16.3054H251.802Z" fill="#B078FF"/>
<path d="M261.221 18.1602C260.569 18.1602 259.998 18.0498 259.51 17.8277C259.02 17.6056 258.615 17.3085 258.293 16.9351C257.972 16.5618 257.729 16.1434 257.567 15.6828C257.405 15.2209 257.322 14.7508 257.322 14.2711V14.0081C257.322 13.5094 257.403 13.0284 257.567 12.5624C257.731 12.0963 257.973 11.6807 258.293 11.3169C258.615 10.9517 259.013 10.6615 259.489 10.4448C259.963 10.2281 260.514 10.1191 261.138 10.1191C261.958 10.1191 262.645 10.2963 263.199 10.6519C263.753 11.0076 264.17 11.4736 264.449 12.05C264.729 12.6264 264.869 13.2478 264.869 13.9114V14.6036H258.148V13.4276H263.653L263.052 14.0095C263.052 13.5298 262.982 13.1197 262.843 12.7777C262.702 12.437 262.49 12.174 262.207 11.9887C261.922 11.8047 261.566 11.7121 261.138 11.7121C260.71 11.7121 260.346 11.8088 260.049 12.0023C259.75 12.1958 259.525 12.4752 259.371 12.8403C259.217 13.2055 259.139 13.6416 259.139 14.1485C259.139 14.6186 259.214 15.0369 259.364 15.4008C259.512 15.766 259.741 16.0508 260.049 16.2592C260.356 16.4664 260.748 16.5713 261.222 16.5713C261.697 16.5713 262.083 16.4773 262.382 16.2879C262.68 16.0985 262.872 15.8654 262.955 15.5888H264.744C264.632 16.1053 264.418 16.5577 264.101 16.946C263.785 17.3344 263.382 17.6328 262.892 17.8454C262.402 18.058 261.847 18.1642 261.222 18.1642L261.221 18.1602ZM258.509 9.42689L259.991 6.58984H262.31L263.778 9.42689H262.158L261.207 7.50282H261.053L260.102 9.42689H258.509Z" fill="#B078FF"/>
<path d="M266.488 17.8972V10.3808H268.024V13.6062H267.884C267.884 12.8404 267.987 12.2013 268.191 11.6889C268.394 11.1766 268.701 10.7923 269.107 10.5334C269.511 10.2745 270.018 10.145 270.623 10.145H270.707C271.611 10.145 272.296 10.4339 272.761 11.0103C273.227 11.5867 273.459 12.4479 273.459 13.5925V17.8972H271.517V13.4263C271.517 12.9644 271.384 12.591 271.118 12.3048C270.853 12.0187 270.487 11.8756 270.022 11.8756C269.557 11.8756 269.162 12.0214 268.869 12.3116C268.576 12.6019 268.429 12.993 268.429 13.4822V17.8972H266.486H266.488Z" fill="#B078FF"/>
<path d="M278.911 18.1601C278.249 18.1601 277.678 18.0497 277.2 17.8276C276.721 17.6055 276.319 17.3111 275.997 16.9419C275.676 16.5726 275.436 16.157 275.278 15.6964C275.12 15.2344 275.04 14.7643 275.04 14.2847V14.0217C275.04 13.5148 275.121 13.0269 275.285 12.5609C275.449 12.0949 275.692 11.6793 276.018 11.3155C276.344 10.9503 276.747 10.66 277.227 10.4434C277.707 10.2267 278.263 10.1177 278.897 10.1177C279.531 10.1177 280.15 10.2444 280.672 10.4979C281.193 10.7513 281.61 11.1042 281.922 11.5566C282.235 12.009 282.409 12.535 282.446 13.1346H280.56C280.514 12.7476 280.349 12.4247 280.064 12.1657C279.779 11.9068 279.391 11.7788 278.897 11.7788C278.469 11.7788 278.112 11.881 277.828 12.0826C277.544 12.2857 277.332 12.565 277.193 12.9207C277.053 13.2763 276.984 13.6837 276.984 14.1457C276.984 14.6076 277.051 14.9905 277.186 15.3503C277.321 15.71 277.53 15.9921 277.815 16.1951C278.099 16.3982 278.464 16.499 278.911 16.499C279.247 16.499 279.536 16.439 279.778 16.3191C280.02 16.1992 280.214 16.033 280.358 15.8204C280.503 15.6078 280.593 15.368 280.631 15.1009H282.517C282.479 15.71 282.299 16.2428 281.979 16.6993C281.658 17.1558 281.233 17.5142 280.708 17.7717C280.181 18.0293 279.582 18.1587 278.912 18.1587L278.911 18.1601Z" fill="#B078FF"/>
<path d="M283.368 11.8211V10.3821H286.373V11.8211H283.368ZM285.143 9.48143C284.76 9.48143 284.478 9.38195 284.297 9.18437C284.115 8.98542 284.024 8.73469 284.024 8.42946C284.024 8.12422 284.115 7.87622 284.297 7.68136C284.478 7.4865 284.76 7.39111 285.143 7.39111C285.525 7.39111 285.804 7.48786 285.98 7.68136C286.157 7.87486 286.246 8.12422 286.246 8.42946C286.246 8.73469 286.158 8.98542 285.98 9.18437C285.803 9.38332 285.524 9.48143 285.143 9.48143ZM284.43 17.8972V10.3808H286.373V17.8972H284.43Z" fill="#B078FF"/>
<path d="M290.761 18.0919C290.211 18.0919 289.729 17.9952 289.315 17.8017C288.901 17.6082 288.579 17.3315 288.351 16.9718C288.122 16.6121 288.008 16.1787 288.008 15.6705C288.008 15.1172 288.146 14.6648 288.421 14.3146C288.696 13.9644 289.083 13.7014 289.581 13.5256C290.079 13.3499 290.663 13.2627 291.335 13.2627H293.095V14.4114H291.307C290.86 14.4114 290.517 14.5204 290.279 14.737C290.041 14.9537 289.923 15.2331 289.923 15.5751C289.923 15.9171 290.041 16.1937 290.279 16.4049C290.517 16.6175 290.86 16.7238 291.307 16.7238C291.577 16.7238 291.827 16.6747 292.055 16.578C292.284 16.4812 292.475 16.315 292.628 16.0793C292.782 15.8435 292.867 15.5233 292.886 15.1172L293.361 15.6568C293.314 16.1828 293.186 16.6257 292.977 16.9854C292.768 17.3452 292.479 17.6204 292.11 17.8085C291.742 17.9979 291.293 18.0919 290.762 18.0919H290.761ZM293.207 17.897V15.6691H292.885V13.1918C292.885 12.7585 292.778 12.4355 292.563 12.2229C292.348 12.0104 292.018 11.9041 291.571 11.9041C291.339 11.9041 291.059 11.9082 290.733 11.9177C290.407 11.9273 290.079 11.9382 289.748 11.9518C289.418 11.9654 289.123 11.9818 288.861 12.0008V10.367C289.076 10.3479 289.318 10.3302 289.588 10.3111C289.857 10.2921 290.135 10.2812 290.42 10.2771C290.705 10.273 290.971 10.2703 291.223 10.2703C292.006 10.2703 292.655 10.3725 293.172 10.5741C293.69 10.7772 294.08 11.096 294.346 11.5294C294.611 11.964 294.745 12.5309 294.745 13.2313V17.8957H293.208L293.207 17.897Z" fill="#B078FF"/>
<path d="M214.619 33.3006C213.967 33.3006 213.396 33.1902 212.907 32.9681C212.418 32.746 212.013 32.4489 211.691 32.0755C211.37 31.7022 211.127 31.2838 210.965 30.8232C210.803 30.3613 210.72 29.8912 210.72 29.4115V29.1485C210.72 28.6498 210.801 28.1688 210.965 27.7028C211.129 27.2367 211.371 26.8211 211.691 26.4573C212.012 26.0935 212.411 25.8019 212.887 25.5852C213.361 25.3685 213.912 25.2595 214.536 25.2595C215.356 25.2595 216.043 25.4367 216.597 25.7923C217.151 26.148 217.568 26.614 217.847 27.1904C218.127 27.7668 218.267 28.3882 218.267 29.0518V29.744H211.546V28.568H217.051L216.45 29.1499C216.45 28.6702 216.38 28.2601 216.241 27.9181C216.1 27.5774 215.888 27.3144 215.605 27.1291C215.32 26.9451 214.964 26.8525 214.536 26.8525C214.108 26.8525 213.744 26.9492 213.447 27.1427C213.148 27.3362 212.923 27.6156 212.769 27.9807C212.614 28.3459 212.537 28.782 212.537 29.2889C212.537 29.759 212.612 30.1773 212.762 30.5412C212.91 30.9064 213.139 31.1912 213.447 31.3996C213.753 31.6068 214.146 31.7117 214.62 31.7117C215.095 31.7117 215.481 31.6177 215.78 31.4283C216.078 31.2389 216.269 31.0058 216.353 30.7292H218.142C218.03 31.2457 217.816 31.6981 217.499 32.0864C217.183 32.4748 216.78 32.7732 216.29 32.9858C215.8 33.1984 215.245 33.3046 214.62 33.3046L214.619 33.3006Z" fill="#B078FF"/>
<path d="M219.887 33.0375V25.5211H221.424V28.7465H221.283C221.283 27.9903 221.381 27.3553 221.576 26.8429C221.772 26.3306 222.063 25.9436 222.45 25.6806C222.836 25.4176 223.318 25.2854 223.897 25.2854H223.981C224.568 25.2854 225.054 25.4176 225.442 25.6806C225.828 25.9436 226.117 26.3319 226.308 26.8429C226.5 27.3553 226.595 27.9889 226.595 28.7465H226.105C226.105 27.9903 226.205 27.3553 226.405 26.8429C226.606 26.3306 226.899 25.9436 227.285 25.6806C227.672 25.4176 228.153 25.2854 228.731 25.2854H228.815C229.402 25.2854 229.891 25.4176 230.283 25.6806C230.675 25.9436 230.969 26.3319 231.17 26.8429C231.371 27.3539 231.47 27.9889 231.47 28.7465V33.0375H229.527V28.5667C229.527 28.0966 229.406 27.7205 229.164 27.4384C228.922 27.1563 228.577 27.016 228.13 27.016C227.683 27.016 227.324 27.1618 227.054 27.452C226.783 27.7423 226.648 28.1334 226.648 28.6225V33.0375H224.706V28.5667C224.706 28.0966 224.585 27.7205 224.343 27.4384C224.101 27.1563 223.755 27.016 223.308 27.016C222.861 27.016 222.502 27.1618 222.232 27.452C221.961 27.7423 221.827 28.1334 221.827 28.6225V33.0375H219.884H219.887Z" fill="#B078FF"/>
<path d="M236.725 33.0376V22.9321H239.981L244.272 31.4038H244.733L244.453 31.6531V22.9321H246.326V33.0376H243.056L238.765 24.566H238.291L238.57 24.3166V33.0376H236.725Z" fill="#B078FF"/>
<path d="M252.083 33.3006C251.431 33.3006 250.86 33.1902 250.371 32.9681C249.882 32.746 249.477 32.4489 249.155 32.0755C248.833 31.7022 248.591 31.2838 248.429 30.8232C248.267 30.3613 248.184 29.8912 248.184 29.4115V29.1485C248.184 28.6498 248.265 28.1688 248.429 27.7028C248.593 27.2367 248.835 26.8211 249.155 26.4573C249.476 26.0935 249.875 25.8019 250.351 25.5852C250.825 25.3685 251.376 25.2595 252 25.2595C252.82 25.2595 253.506 25.4367 254.061 25.7923C254.615 26.148 255.032 26.614 255.311 27.1904C255.59 27.7668 255.731 28.3882 255.731 29.0518V29.744H249.009V28.568H254.515L253.914 29.1499C253.914 28.6702 253.843 28.2601 253.704 27.9181C253.564 27.5774 253.352 27.3144 253.069 27.1291C252.784 26.9451 252.428 26.8525 252 26.8525C251.572 26.8525 251.208 26.9492 250.911 27.1427C250.612 27.3362 250.386 27.6156 250.232 27.9807C250.078 28.3459 250.001 28.782 250.001 29.2889C250.001 29.759 250.076 30.1773 250.226 30.5412C250.374 30.9064 250.602 31.1912 250.911 31.3996C251.217 31.6068 251.609 31.7117 252.084 31.7117C252.559 31.7117 252.945 31.6177 253.244 31.4283C253.542 31.2389 253.733 31.0058 253.817 30.7292H255.606C255.494 31.2457 255.28 31.6981 254.963 32.0864C254.647 32.4748 254.244 32.7732 253.754 32.9858C253.264 33.1984 252.709 33.3046 252.084 33.3046L252.083 33.3006Z" fill="#B078FF"/>
<path d="M260.311 36.0001C259.948 36.0001 259.578 35.9864 259.2 35.9578C258.823 35.9306 258.471 35.8938 258.145 35.8474V34.2422C258.48 34.279 258.838 34.3131 259.22 34.3458C259.603 34.3785 259.961 34.3949 260.296 34.3949C260.921 34.3949 261.426 34.3213 261.812 34.1741C262.199 34.0269 262.483 33.7939 262.665 33.4751C262.847 33.1562 262.937 32.7529 262.937 32.2637V30.7825L263.357 29.8409C263.329 30.5331 263.185 31.1218 262.924 31.6055C262.662 32.0892 262.309 32.4585 261.862 32.7133C261.415 32.9668 260.897 33.0935 260.31 33.0935C259.789 33.0935 259.315 32.9968 258.892 32.8033C258.468 32.6098 258.105 32.3413 257.802 32.0007C257.5 31.66 257.264 31.258 257.096 30.7961C256.929 30.3341 256.845 29.8409 256.845 29.3149V29.0246C256.845 28.4986 256.931 28.0067 257.103 27.5502C257.275 27.0937 257.52 26.6945 257.837 26.3525C258.153 26.0118 258.53 25.7488 258.969 25.5635C259.406 25.3795 259.89 25.2869 260.421 25.2869C261.046 25.2869 261.588 25.4204 262.049 25.6888C262.51 25.9573 262.871 26.3443 263.131 26.8512C263.391 27.3581 263.537 27.9822 263.565 28.7194L263.229 28.7753V25.5226H264.766V32.1533C264.766 33.0663 264.607 33.8048 264.291 34.3676C263.975 34.9304 263.488 35.3433 262.83 35.6063C262.173 35.8692 261.332 36.0014 260.307 36.0014L260.311 36.0001ZM260.871 31.4461C261.244 31.4461 261.584 31.3629 261.892 31.1967C262.199 31.0305 262.446 30.7906 262.632 30.4772C262.819 30.1638 262.911 29.785 262.911 29.3421V28.8584C262.911 28.4346 262.816 28.0735 262.625 27.7792C262.434 27.4835 262.185 27.26 261.878 27.1074C261.57 26.9548 261.236 26.8784 260.873 26.8784C260.463 26.8784 260.102 26.9738 259.79 27.1619C259.478 27.3513 259.233 27.617 259.057 27.9577C258.881 28.2983 258.791 28.7044 258.791 29.1759C258.791 29.6474 258.879 30.0384 259.057 30.3805C259.234 30.7225 259.478 30.9841 259.79 31.1694C260.102 31.3548 260.463 31.4461 260.873 31.4461H260.871Z" fill="#B078FF"/>
<path d="M270.54 33.3007C269.869 33.3007 269.278 33.1944 268.766 32.9818C268.254 32.7692 267.821 32.4817 267.466 32.1165C267.111 31.7527 266.844 31.3398 266.663 30.8779C266.481 30.4159 266.39 29.9363 266.39 29.4389V29.1487C266.39 28.6322 266.485 28.1403 266.676 27.6743C266.867 27.2082 267.143 26.7926 267.5 26.4288C267.859 26.065 268.294 25.7788 268.807 25.5703C269.32 25.3618 269.897 25.2583 270.54 25.2583C271.184 25.2583 271.761 25.3618 272.274 25.5703C272.785 25.7775 273.222 26.0636 273.581 26.4288C273.94 26.794 274.212 27.2082 274.398 27.6743C274.583 28.1403 274.677 28.6322 274.677 29.1487V29.4389C274.677 29.9376 274.586 30.4173 274.405 30.8779C274.223 31.3398 273.955 31.7527 273.601 32.1165C273.246 32.4817 272.814 32.7692 272.301 32.9818C271.788 33.1944 271.202 33.3007 270.54 33.3007ZM270.54 31.6532C271.015 31.6532 271.417 31.5497 271.743 31.3412C272.069 31.1341 272.315 30.852 272.483 30.4963C272.651 30.1407 272.735 29.7373 272.735 29.2849C272.735 28.8325 272.648 28.4156 272.476 28.0599C272.303 27.7042 272.052 27.4235 271.721 27.2151C271.391 27.0079 270.996 26.903 270.54 26.903C270.085 26.903 269.69 27.0066 269.36 27.2151C269.03 27.4222 268.775 27.7042 268.598 28.0599C268.421 28.4156 268.333 28.823 268.333 29.2849C268.333 29.7469 268.419 30.1407 268.591 30.4963C268.763 30.852 269.012 31.1327 269.338 31.3412C269.664 31.5483 270.064 31.6532 270.54 31.6532ZM269.576 24.5661L270.82 21.729H272.832L271.239 24.5661H269.576Z" fill="#B078FF"/>
<path d="M279.749 33.3007C279.087 33.3007 278.516 33.1903 278.038 32.9682C277.559 32.7461 277.157 32.4518 276.835 32.0825C276.513 31.7132 276.274 31.2976 276.116 30.837C275.958 30.3751 275.878 29.905 275.878 29.4253V29.1623C275.878 28.6554 275.959 28.1676 276.123 27.7015C276.286 27.2355 276.53 26.8199 276.856 26.4561C277.182 26.0909 277.585 25.8006 278.065 25.584C278.545 25.3673 279.101 25.2583 279.735 25.2583C280.369 25.2583 280.988 25.385 281.51 25.6385C282.031 25.8919 282.448 26.2449 282.76 26.6973C283.072 27.1497 283.247 27.6757 283.284 28.2752H281.398C281.352 27.8882 281.186 27.5653 280.902 27.3064C280.617 27.0475 280.229 26.9194 279.735 26.9194C279.307 26.9194 278.95 27.0216 278.666 27.2232C278.382 27.4263 278.17 27.7056 278.031 28.0613C277.89 28.4169 277.822 28.8244 277.822 29.2863C277.822 29.7483 277.889 30.1312 278.024 30.4909C278.159 30.8506 278.368 31.1327 278.653 31.3357C278.937 31.5388 279.302 31.6396 279.749 31.6396C280.085 31.6396 280.373 31.5797 280.616 31.4597C280.858 31.3398 281.052 31.1736 281.196 30.961C281.341 30.7484 281.431 30.5086 281.468 30.2415H283.354C283.317 30.8506 283.138 31.3834 282.817 31.8399C282.495 32.2964 282.071 32.6548 281.546 32.9123C281.019 33.1699 280.42 33.2993 279.75 33.2993L279.749 33.3007Z" fill="#B078FF"/>
<path d="M284.208 26.9615V25.5225H287.212V26.9615H284.208ZM285.982 24.6218C285.6 24.6218 285.318 24.5223 285.136 24.3247C284.954 24.1258 284.864 23.8751 284.864 23.5698C284.864 23.2646 284.954 23.0166 285.136 22.8217C285.318 22.6269 285.6 22.5315 285.982 22.5315C286.364 22.5315 286.644 22.6282 286.82 22.8217C286.996 23.0152 287.085 23.2646 287.085 23.5698C287.085 23.8751 286.997 24.1258 286.82 24.3247C286.642 24.5237 286.363 24.6218 285.982 24.6218ZM285.269 33.0376V25.5212H287.212V33.0376H285.269Z" fill="#B078FF"/>
<path d="M293.094 33.3007C292.423 33.3007 291.831 33.1944 291.32 32.9818C290.808 32.7693 290.375 32.4817 290.02 32.1165C289.665 31.7527 289.398 31.3398 289.216 30.8779C289.035 30.416 288.944 29.9363 288.944 29.4389V29.1487C288.944 28.6322 289.039 28.1403 289.23 27.6743C289.421 27.2083 289.696 26.7927 290.054 26.4288C290.413 26.065 290.848 25.7788 291.361 25.5703C291.874 25.3619 292.45 25.2583 293.094 25.2583C293.738 25.2583 294.314 25.3619 294.827 25.5703C295.339 25.7775 295.775 26.0636 296.134 26.4288C296.493 26.794 296.766 27.2083 296.951 27.6743C297.137 28.1403 297.231 28.6322 297.231 29.1487V29.4389C297.231 29.9377 297.14 30.4173 296.958 30.8779C296.777 31.3398 296.508 31.7527 296.155 32.1165C295.8 32.4817 295.368 32.7693 294.855 32.9818C294.342 33.1944 293.756 33.3007 293.094 33.3007ZM293.094 31.6532C293.569 31.6532 293.97 31.5497 294.296 31.3412C294.622 31.1341 294.869 30.852 295.037 30.4963C295.204 30.1407 295.288 29.7373 295.288 29.2849C295.288 28.8325 295.202 28.4156 295.03 28.0599C294.856 27.7043 294.606 27.4236 294.274 27.2151C293.944 27.008 293.549 26.903 293.094 26.903C292.639 26.903 292.244 27.0066 291.914 27.2151C291.584 27.4222 291.329 27.7043 291.152 28.0599C290.974 28.4156 290.886 28.823 290.886 29.2849C290.886 29.7469 290.973 30.1407 291.145 30.4963C291.317 30.852 291.566 31.1327 291.892 31.3412C292.218 31.5483 292.618 31.6532 293.094 31.6532Z" fill="#B078FF"/>
<path d="M301.687 33.2733C300.643 33.2733 299.826 33.0539 299.235 32.6152C298.643 32.1764 298.334 31.57 298.305 30.7947H300.052C300.079 31.0536 300.224 31.2879 300.485 31.5005C300.745 31.7131 301.156 31.8194 301.715 31.8194C302.181 31.8194 302.551 31.7363 302.826 31.57C303.102 31.4038 303.239 31.1776 303.239 30.8914C303.239 30.642 303.135 30.4445 302.924 30.2959C302.715 30.1488 302.357 30.052 301.855 30.0057L301.184 29.9362C300.336 29.8435 299.684 29.6037 299.228 29.2167C298.771 28.8297 298.543 28.3119 298.543 27.666C298.543 27.1496 298.673 26.7162 298.933 26.3647C299.193 26.0145 299.555 25.7487 300.016 25.5689C300.477 25.389 301.005 25.2991 301.602 25.2991C302.533 25.2991 303.289 25.5021 303.866 25.9082C304.444 26.3143 304.747 26.9097 304.774 27.6933H303.027C303.008 27.4357 302.879 27.2136 302.637 27.0283C302.394 26.8443 302.045 26.7517 301.588 26.7517C301.178 26.7517 300.862 26.8307 300.638 26.9874C300.415 27.1441 300.302 27.3471 300.302 27.5965C300.302 27.8459 300.393 28.0217 300.574 28.1497C300.756 28.2792 301.052 28.3664 301.462 28.4127L302.133 28.4822C303.027 28.5749 303.729 28.8188 304.236 29.2153C304.744 29.6119 304.998 30.1474 304.998 30.8206C304.998 31.3193 304.861 31.7499 304.586 32.1151C304.311 32.4803 303.927 32.7637 303.433 32.9667C302.939 33.1698 302.357 33.2706 301.686 33.2706L301.687 33.2733Z" fill="#B078FF"/>
</g>
<defs>
<clipPath id="clip0_2237_87">
<rect width="305" height="36" fill="white"/>
</clipPath>
</defs>
</svg>
