<svg width="195" height="31" viewBox="0 0 195 31" fill="none" xmlns="http://www.w3.org/2000/svg">
<g id="LOGO OTIMIZARE" clip-path="url(#clip0_249_451)">
<path id="Vector" d="M69.9699 8.14456C69.2324 7.2856 68.3281 6.62556 67.257 6.16543C66.1859 5.70531 64.9844 5.47525 63.6517 5.47525C62.3189 5.47525 61.1175 5.71134 60.0463 6.18352C58.9752 6.6557 58.065 7.3278 57.3157 8.19982C56.5664 9.07184 55.9829 10.1257 55.5663 11.3604C55.1497 12.5951 54.9414 13.9755 54.9414 15.5015C54.9414 17.0275 55.1379 18.3597 55.5308 19.5703C55.9227 20.7819 56.4825 21.8166 57.2081 22.6766C57.9337 23.5366 58.8261 24.1966 59.8854 24.6567C60.9437 25.1169 62.1521 25.3469 63.5085 25.3469C64.865 25.3469 66.0842 25.1108 67.1672 24.6386C68.2501 24.1665 69.1663 23.4883 69.9156 22.6043C70.6649 21.7202 71.2414 20.6613 71.6472 19.4256C72.0519 18.1909 72.2543 16.8105 72.2543 15.2845C72.2543 13.7585 72.0579 12.4635 71.6649 11.2529C71.273 10.0423 70.7064 9.00654 69.9699 8.14657V8.14456ZM69.6846 18.5887C69.4467 19.5823 69.0656 20.4413 68.5424 21.1686C68.0181 21.895 67.3518 22.4706 66.5432 22.8936C65.7337 23.3176 64.7465 23.5295 63.5806 23.5295C62.4147 23.5295 61.4561 23.3176 60.6357 22.8936C59.8143 22.4706 59.148 21.895 58.6366 21.1686C58.1242 20.4423 57.7501 19.5823 57.5121 18.5887C57.2742 17.5962 57.1557 16.5312 57.1557 15.392C57.1557 14.2527 57.2742 13.1939 57.5121 12.2133C57.7501 11.2328 58.1242 10.3789 58.6366 9.65252C59.148 8.92617 59.8143 8.35051 60.6357 7.92656C61.4571 7.50361 62.4384 7.29062 63.5806 7.29062C64.7228 7.29062 65.7337 7.5026 66.5432 7.92656C67.3518 8.35051 68.0181 8.92516 68.5424 9.65252C69.0656 10.3789 69.4467 11.2328 69.6846 12.2133C69.9225 13.1939 70.041 14.2417 70.041 15.3558C70.041 16.47 69.9215 17.5962 69.6846 18.5887Z" fill="white"/>
<path id="Vector_2" d="M83.1028 23.202C82.6743 23.2995 82.1511 23.3477 81.5321 23.3477C80.5795 23.3477 79.9131 23.0272 79.533 22.3853C79.1519 21.7433 78.9614 20.9627 78.9614 20.0424V7.80097H84.1729V6.05693H78.9614V0.897125H76.8912V6.05492H74.0352V7.79896H76.8912V18.6962C76.8912 19.5441 76.9267 20.3559 76.9988 21.1305C77.0699 21.906 77.2545 22.5902 77.5526 23.1829C77.8498 23.7767 78.296 24.2549 78.8913 24.6175C79.4856 24.9812 80.307 25.1621 81.3544 25.1621C82.1867 25.1621 82.8589 25.1008 83.3713 24.9802C83.8827 24.8587 84.3171 24.726 84.6745 24.5804L84.246 22.8735C83.9123 22.9951 83.5322 23.1036 83.1038 23.2L83.1028 23.202Z" fill="white"/>
<path id="Vector_3" d="M87.2227 6.05594V7.79998H89.0856V24.7642H91.1558V7.5227C91.1558 6.71297 90.5101 6.05594 89.7144 6.05594H89.0846H87.2217H87.2227Z" fill="white"/>
<path id="Vector_4" d="M114.532 5.49835C114.067 5.5295 113.322 5.6822 112.885 5.84495C111.222 6.46381 109.826 7.56288 108.694 9.14417C108.289 7.98181 107.664 7.07965 106.82 6.43769C105.975 5.79673 104.851 5.47525 103.447 5.47525C102.376 5.47525 101.323 5.77865 100.288 6.38344C99.253 6.98923 98.2826 7.90847 97.3783 9.14417V6.05592H95.3081V24.7642H97.3783V13.6851C97.3783 13.0562 97.4435 12.4986 97.5748 12.0144C97.7051 11.5302 97.866 11.1062 98.0565 10.7425C98.2471 10.3799 98.4672 10.0644 98.717 9.79819C98.9668 9.53196 99.1987 9.3019 99.413 9.108C100.032 8.55144 100.657 8.12145 101.287 7.81805C101.918 7.51566 102.59 7.36396 103.304 7.36396C104.565 7.36396 105.504 7.74572 106.124 8.50824C106.742 9.27076 107.052 10.5607 107.052 12.3771V24.7642H109.122V12.7769C109.122 11.9049 109.306 11.1424 109.676 10.4884C110.044 9.83435 110.515 9.27779 111.086 8.81766C111.729 8.2611 112.401 7.87934 113.103 7.67339C113.805 7.46844 114.429 7.36496 114.977 7.36496C115.619 7.36496 116.178 7.44433 116.654 7.60105C117.13 7.75878 117.529 8.03104 117.849 8.41782C118.171 8.80561 118.408 9.31395 118.563 9.94386C118.718 10.5738 118.795 11.3735 118.795 12.3419V24.7652H120.865V11.5774C120.865 9.44657 120.366 7.89641 119.366 6.92795C118.238 5.83591 116.627 5.35871 114.531 5.49835H114.532Z" fill="white"/>
<path id="Vector_5" d="M144.816 6.05594H131.61V7.83615H143.629L131.664 22.6083C131.556 22.7419 131.465 22.8926 131.417 23.0594C131.16 23.9515 131.81 24.7642 132.647 24.7642H146.102V22.984H133.822L145.808 8.19882C145.999 7.96474 146.102 7.66938 146.102 7.36598C146.102 6.64265 145.526 6.05594 144.815 6.05594H144.816Z" fill="white"/>
<path id="Vector_6" d="M162.149 7.30971C161.614 6.71597 160.905 6.26288 160.024 5.94743C159.144 5.63298 158.061 5.47525 156.775 5.47525C152.635 5.47525 150.231 7.00129 149.565 10.0524L151.456 10.3427C151.575 9.88258 151.753 9.46566 151.991 9.08992C152.229 8.71419 152.55 8.38769 152.955 8.1094C153.36 7.83112 153.865 7.61914 154.472 7.47347C155.079 7.3278 155.823 7.25546 156.703 7.25546C158.512 7.25546 159.768 7.67942 160.47 8.52733C161.172 9.37524 161.523 10.7194 161.523 12.5589V13.1406L157.953 13.2863C156.763 13.3355 155.615 13.45 154.509 13.6319C153.402 13.8137 152.414 14.1352 151.546 14.5943C150.677 15.0544 149.981 15.6843 149.458 16.483C148.934 17.2817 148.672 18.3115 148.672 19.5703C148.672 21.4359 149.255 22.8393 150.422 23.7847C151.588 24.7291 153.135 25.2012 155.063 25.2012C155.848 25.2012 156.568 25.1159 157.223 24.9471C157.877 24.7773 158.477 24.5472 159.025 24.2569C159.572 23.9665 160.061 23.634 160.488 23.2583C160.917 22.8825 161.285 22.5018 161.595 22.114V24.7662H163.665V12.4514C163.665 11.3383 163.546 10.3507 163.308 9.49077C163.07 8.63181 162.683 7.90546 162.148 7.31172L162.149 7.30971ZM161.56 17.571C161.56 18.1527 161.524 18.6611 161.452 19.0971C161.381 19.5331 161.255 19.9269 161.077 20.2775C160.898 20.6292 160.672 20.9496 160.399 21.24C160.125 21.5303 159.774 21.8337 159.345 22.1482C158.846 22.5601 158.208 22.8564 157.436 23.0383C156.662 23.2201 155.883 23.3105 155.097 23.3105C153.527 23.3105 152.426 22.9649 151.795 22.2747C151.164 21.5846 150.849 20.6703 150.849 19.5321C150.849 18.7816 150.974 18.1336 151.224 17.5891C151.474 17.0446 151.885 16.5845 152.455 16.2088C153.027 15.833 153.776 15.5427 154.704 15.3367C155.632 15.1308 156.786 15.0042 158.166 14.955L161.558 14.8093V17.57L161.56 17.571Z" fill="white"/>
<path id="Vector_7" d="M175.974 5.76559C174.902 5.76559 173.891 6.05593 172.939 6.63762C171.986 7.2193 171.142 8.0421 170.405 9.10801V7.52571C170.405 6.71799 169.763 6.06196 168.969 6.05895L168.334 6.05694V6.06498H166.256V7.80902H168.334V24.7652H170.405V13.5043C170.405 12.5599 170.583 11.7422 170.94 11.052C171.296 10.3618 171.748 9.77509 172.296 9.28985C172.868 8.73328 173.474 8.33947 174.117 8.10941C174.759 7.87935 175.39 7.76381 176.009 7.76381C176.366 7.76381 176.758 7.79998 177.187 7.87332L177.437 5.8751C177.175 5.82688 176.931 5.79674 176.705 5.78468C176.478 5.77263 176.235 5.7666 175.974 5.7666V5.76559Z" fill="white"/>
<path id="Vector_8" d="M194.5 14.5923C194.5 13.3094 194.357 12.1109 194.072 10.9957C193.786 9.88258 193.328 8.91913 192.697 8.10739C192.067 7.29665 191.251 6.65469 190.252 6.18251C189.253 5.71033 188.039 5.47424 186.611 5.47424C185.397 5.47424 184.284 5.69225 183.273 6.12826C182.262 6.56427 181.382 7.21226 180.632 8.07122C179.882 8.93119 179.299 9.99108 178.882 11.2499C178.466 12.5097 178.257 13.9624 178.257 15.609C178.257 18.637 178.989 21.0159 180.453 22.7469C181.917 24.4789 183.969 25.3439 186.611 25.3439C188.896 25.3439 190.657 24.8356 191.895 23.8179C193.132 22.8012 193.894 21.4811 194.179 19.8586H192.18C192.037 20.4162 191.841 20.9185 191.591 21.3666C191.341 21.8146 191.001 22.2084 190.573 22.547C190.144 22.8866 189.609 23.1468 188.967 23.3276C188.324 23.5094 187.539 23.5999 186.611 23.5999C185.587 23.5999 184.683 23.3999 183.898 23.0001C183.113 22.6002 182.458 22.0557 181.935 21.3655C181.411 20.6754 181.019 19.8646 180.757 18.9313C180.494 18 180.364 17.0004 180.364 15.9345H194.5V14.5903V14.5923ZM180.4 14.1201C180.614 11.7713 181.257 10.0272 182.328 8.889C183.399 7.75074 184.826 7.18212 186.611 7.18212C187.634 7.18212 188.515 7.3519 189.253 7.69047C189.99 8.03003 190.586 8.50723 191.038 9.12508C191.49 9.74293 191.823 10.4753 192.037 11.3232C192.251 12.1711 192.358 13.1034 192.358 14.1201H180.4Z" fill="white"/>
<path id="Vector_9" d="M90.3875 0.432988C89.426 0.247131 88.5977 1.09002 88.7803 2.06853C88.882 2.61204 89.3184 3.05709 89.8534 3.16057C90.815 3.34643 91.6433 2.50354 91.4606 1.52503C91.3589 0.981519 90.9226 0.536465 90.3875 0.432988Z" fill="white"/>
<path id="Vector_10" d="M124 6.05594V7.79998H125.863V24.7642H127.934V7.5227C127.934 6.71297 127.288 6.05594 126.492 6.05594H125.862H124H124Z" fill="white"/>
<path id="Vector_11" d="M127.165 0.432988C126.204 0.247131 125.376 1.09002 125.558 2.06853C125.66 2.61204 126.096 3.05709 126.631 3.16057C127.593 3.34643 128.421 2.50354 128.238 1.52503C128.137 0.981519 127.7 0.536465 127.165 0.432988Z" fill="white"/>
<path id="Vector_12" d="M15.9512 1.9058L12.6934 7.67541H37.3157C38.1499 7.67541 38.6711 8.59465 38.2545 9.33004L30.3093 23.3336H36.8694C38.2002 23.3336 39.4293 22.6133 40.0977 21.4419L40.6712 20.4363C45.8383 11.3785 39.4244 0.0261246 29.1326 0.0130644C25.0376 0.00804123 21.3858 0.00301805 19.1903 4.1521e-06C17.8526 -0.00200512 16.6176 0.72535 15.9502 1.9058H15.9512Z" fill="#8436FF"/>
<path id="Vector_13" d="M27.0463 29.0942L30.3042 23.3246H5.68187C4.84766 23.3246 4.32641 22.4053 4.74302 21.6699L12.6882 7.66635H6.12809C4.79731 7.66635 3.56822 8.38667 2.89987 9.55808L2.3263 10.5637C-2.84082 19.6215 3.57316 30.9729 13.8649 30.9869C17.9599 30.992 21.6117 30.997 23.8073 31C25.1449 31.002 26.38 30.2746 27.0473 29.0942H27.0463Z" fill="#8436FF"/>
</g>
<defs>
<clipPath id="clip0_249_451">
<rect width="194" height="31" fill="white" transform="translate(0.5)"/>
</clipPath>
</defs>
</svg>
