<svg width="109" height="32" viewBox="0 0 109 32" fill="none" xmlns="http://www.w3.org/2000/svg">
<g id="rakuten" clip-path="url(#clip0_17_91)">
<g id="Vector">
<path d="M27.6479 31.9999L87.4373 26.8178H22.4657L27.6479 31.9999Z" fill="#3D544D"/>
<path d="M101.299 5.44123C100.073 5.46988 98.8807 5.85228 97.8663 6.54245V5.8299H93.8501V23.4493H97.8663V13.1497C97.838 12.6985 97.9025 12.2462 98.0557 11.8209C98.2089 11.3955 98.4477 11.0061 98.7572 10.6765C99.0668 10.347 99.4406 10.0843 99.8555 9.90479C100.27 9.72525 100.718 9.63263 101.17 9.63263C101.622 9.63263 102.069 9.72525 102.484 9.90479C102.899 10.0843 103.273 10.347 103.583 10.6765C103.892 11.0061 104.131 11.3955 104.284 11.8209C104.437 12.2462 104.502 12.6985 104.474 13.1497V23.5141H108.49V13.1497C108.49 8.87443 105.575 5.44123 101.299 5.44123Z" fill="#3D544D"/>
<path d="M84.5869 5.37655C79.9229 5.37655 76.6192 9.45752 76.6192 14.6397C76.6192 20.081 80.765 23.9029 84.9755 23.9029C87.1132 23.9029 89.769 23.1903 92.0363 19.9515L88.4735 17.8786C85.7529 21.8948 81.1537 19.8867 80.6354 15.8057H92.1658C93.2022 9.58708 89.1213 5.37655 84.5869 5.37655ZM80.8946 12.3725C81.7367 8.29153 87.3075 8.03242 88.0848 12.3725H80.8946Z" fill="#3D544D"/>
<path d="M68.0686 17.6194C68.0329 18.4269 68.1603 19.2332 68.443 19.9904C68.7257 20.7476 69.1581 21.44 69.7143 22.0264C70.2705 22.6129 70.9391 23.0812 71.6803 23.4036C72.4214 23.726 73.2199 23.8958 74.0282 23.9028C75.3936 23.855 76.7272 23.4771 77.9148 22.8016L75.3237 19.3036C74.9258 19.5875 74.452 19.7454 73.9634 19.7571C73.6965 19.7495 73.434 19.687 73.1923 19.5735C72.9506 19.46 72.7348 19.2979 72.5586 19.0973C72.3823 18.8967 72.2493 18.662 72.1678 18.4077C72.0863 18.1534 72.058 17.8851 72.0848 17.6194V10.0405H75.518V5.82993H72.0848V1.42507H68.0686V5.82993H65.931V10.0405H68.0686V17.6194Z" fill="#3D544D"/>
<path d="M57.1215 23.9028C58.3481 23.8742 59.5403 23.4918 60.5547 22.8016V23.4494H64.5709V5.82996H60.5547V16.1943C60.5829 16.6456 60.5185 17.0978 60.3652 17.5232C60.212 17.9486 59.9732 18.338 59.6637 18.6676C59.3542 18.9971 58.9804 19.2598 58.5654 19.4393C58.1505 19.6188 57.7031 19.7114 57.251 19.7114C56.7989 19.7114 56.3516 19.6188 55.9366 19.4393C55.5217 19.2598 55.1479 18.9971 54.8383 18.6676C54.5288 18.338 54.2901 17.9486 54.1368 17.5232C53.9836 17.0978 53.9191 16.6456 53.9474 16.1943V5.82996H49.9312V16.1943C49.9312 20.4696 52.8462 23.9028 57.1215 23.9028Z" fill="#3D544D"/>
<path d="M38.8543 16.2591L44.8138 23.5142H50.3847L42.4171 14.1215L49.2835 5.82996H43.7126L38.8543 11.9838V0H34.7734V23.5142H38.8543V16.2591Z" fill="#3D544D"/>
<path d="M28.4897 22.6721V23.4494H32.5059V5.82999H28.4897V6.60732C27.3952 5.81751 26.0823 5.38742 24.7326 5.37655C20.1982 5.37655 16.7002 9.5223 16.7002 14.6397C16.7002 19.7571 20.1334 23.9029 24.7326 23.9029C26.0839 23.9021 27.3999 23.471 28.4897 22.6721ZM20.7812 14.7045C20.7812 11.9191 22.4006 9.71663 24.6678 9.71663C26.935 9.71663 28.4897 11.9191 28.4897 14.7045C28.4897 17.4899 26.935 19.6923 24.6678 19.6923C22.4006 19.6923 20.7812 17.4899 20.7812 14.7045Z" fill="#3D544D"/>
<path d="M15.4048 9.00402C15.4031 6.99448 14.6041 5.06774 13.1831 3.64679C11.7621 2.22583 9.8354 1.42679 7.82587 1.42507H0.959473V23.4494H5.17V16.6477H8.08498L13.2024 23.4494H18.4493L12.2307 15.2226C13.2231 14.5199 14.0303 13.5871 14.5831 12.504C15.1359 11.4209 15.4179 10.2199 15.4048 9.00402ZM7.89065 12.502H5.17V5.6356H7.89065C8.80119 5.6356 9.67443 5.99731 10.3183 6.64116C10.9621 7.28501 11.3238 8.15825 11.3238 9.0688C11.3238 9.97934 10.9621 10.8526 10.3183 11.4964C9.67443 12.1403 8.80119 12.502 7.89065 12.502Z" fill="#3D544D"/>
</g>
</g>
<defs>
<clipPath id="clip0_17_91">
<rect width="107.53" height="32" fill="white" transform="translate(0.959717)"/>
</clipPath>
</defs>
</svg>
