<svg width="20" height="20" viewBox="0 0 20 20" fill="none" xmlns="http://www.w3.org/2000/svg">
<path id="Star 11" d="M12.4219 1.16522C13.0357 0.420465 14.2441 0.89131 14.1922 1.855L13.8716 7.80671C13.8545 8.12383 13.9891 8.43022 14.2342 8.6322L18.8337 12.4229C19.5785 13.0367 19.1076 14.2451 18.144 14.1932L12.1922 13.8726C11.8751 13.8555 11.5687 13.9901 11.3668 14.2351L7.57604 18.8347C6.96225 19.5795 5.75388 19.1086 5.80579 18.1449L6.12638 12.1932C6.14346 11.8761 6.0089 11.5697 5.76382 11.3677L1.16424 7.57701C0.419488 6.96323 0.890333 5.75485 1.85402 5.80676L7.80573 6.12736C8.12286 6.14444 8.42924 6.00987 8.63122 5.7648L12.4219 1.16522Z" fill="#8336FF"/>
</svg>
