<svg width="43" height="43" viewBox="0 0 43 43" fill="none" xmlns="http://www.w3.org/2000/svg">
<path id="Star 3" d="M16.8713 1.39263C17.0036 0.436664 18.2795 0.204236 18.7404 1.05213L25.9382 14.2924C26.0899 14.5714 26.3651 14.7618 26.6797 14.8053L41.6076 16.8716C42.5635 17.0039 42.796 18.2797 41.9481 18.7407L28.7078 25.9384C28.4288 26.0901 28.2384 26.3653 28.1949 26.6799L26.1287 41.6078C25.9963 42.5638 24.7205 42.7962 24.2595 41.9483L17.0618 28.7081C16.9101 28.4291 16.6349 28.2387 16.3203 28.1951L1.39239 26.1289C0.436416 25.9966 0.203988 24.7207 1.05188 24.2598L14.2921 17.062C14.5712 16.9103 14.7615 16.6351 14.8051 16.3206L16.8713 1.39263Z" fill="#8336FF"/>
</svg>
